<mxfile host="65bd71144e">
    <diagram id="ERP-AI-Level0-DFD" name="Level 0 DFD">
        <mxGraphModel dx="1216" dy="737" grid="1" gridSize="10" guides="1" tooltips="1" connect="1" arrows="1" fold="1" page="1" pageScale="1" pageWidth="850" pageHeight="1100" math="0" shadow="0">
            <root>
                <mxCell id="0"/>
                <mxCell id="1" parent="0"/>
                
                <!-- Main ERP-AI System Process (Circle) -->
                <mxCell id="2" value="ERP-AI&#xa;System" style="ellipse;whiteSpace=wrap;html=1;aspect=fixed;fillColor=#dae8fc;strokeColor=#6c8ebf;fontSize=16;fontStyle=1" vertex="1" parent="1">
                    <mxGeometry x="340" y="320" width="170" height="170" as="geometry"/>
                </mxCell>
                
                <!-- External Entities -->
                <!-- Employees -->
                <mxCell id="3" value="Employees" style="rounded=0;whiteSpace=wrap;html=1;fillColor=#f5f5f5;strokeColor=#666666;fontColor=#333333;fontSize=14;fontStyle=1" vertex="1" parent="1">
                    <mxGeometry x="120" y="200" width="120" height="60" as="geometry"/>
                </mxCell>
                
                <!-- Customers -->
                <mxCell id="4" value="Customers" style="rounded=0;whiteSpace=wrap;html=1;fillColor=#f5f5f5;strokeColor=#666666;fontColor=#333333;fontSize=14;fontStyle=1" vertex="1" parent="1">
                    <mxGeometry x="120" y="550" width="120" height="60" as="geometry"/>
                </mxCell>
                
                <!-- Management -->
                <mxCell id="5" value="Management" style="rounded=0;whiteSpace=wrap;html=1;fillColor=#f5f5f5;strokeColor=#666666;fontColor=#333333;fontSize=14;fontStyle=1" vertex="1" parent="1">
                    <mxGeometry x="610" y="200" width="120" height="60" as="geometry"/>
                </mxCell>
                
                <!-- Suppliers -->
                <mxCell id="6" value="Suppliers" style="rounded=0;whiteSpace=wrap;html=1;fillColor=#f5f5f5;strokeColor=#666666;fontColor=#333333;fontSize=14;fontStyle=1" vertex="1" parent="1">
                    <mxGeometry x="610" y="550" width="120" height="60" as="geometry"/>
                </mxCell>
                
                <!-- Data Flows -->
                <!-- Employee to System -->
                <mxCell id="7" value="Employee Data&#xa;(Profiles, Attendance)" style="endArrow=classic;html=1;exitX=1;exitY=0.5;exitDx=0;exitDy=0;entryX=0;entryY=0.25;entryDx=0;entryDy=0;curved=1;fontSize=12;" edge="1" parent="1" source="3" target="2">
                    <mxGeometry x="-0.0968" y="15" width="50" height="50" relative="1" as="geometry">
                        <mxPoint x="400" y="390" as="sourcePoint"/>
                        <mxPoint x="450" y="340" as="targetPoint"/>
                        <Array as="points">
                            <mxPoint x="280" y="250"/>
                        </Array>
                        <mxPoint as="offset"/>
                    </mxGeometry>
                </mxCell>
                
                <!-- System to Employee -->
                <mxCell id="8" value="Tasks, Schedules,&#xa;Payroll Information" style="endArrow=classic;html=1;exitX=0;exitY=0.5;exitDx=0;exitDy=0;entryX=1;entryY=0.75;entryDx=0;entryDy=0;curved=1;fontSize=12;" edge="1" parent="1" source="2" target="3">
                    <mxGeometry x="-0.3333" y="-20" width="50" height="50" relative="1" as="geometry">
                        <mxPoint x="400" y="390" as="sourcePoint"/>
                        <mxPoint x="450" y="340" as="targetPoint"/>
                        <Array as="points">
                            <mxPoint x="290" y="320"/>
                        </Array>
                        <mxPoint as="offset"/>
                    </mxGeometry>
                </mxCell>
                
                <!-- Customer to System -->
                <mxCell id="9" value="Orders, Customer&#xa;Information" style="endArrow=classic;html=1;exitX=1;exitY=0.25;exitDx=0;exitDy=0;entryX=0;entryY=0.75;entryDx=0;entryDy=0;curved=1;fontSize=12;" edge="1" parent="1" source="4" target="2">
                    <mxGeometry x="-0.0968" y="15" width="50" height="50" relative="1" as="geometry">
                        <mxPoint x="400" y="390" as="sourcePoint"/>
                        <mxPoint x="450" y="340" as="targetPoint"/>
                        <Array as="points">
                            <mxPoint x="280" y="480"/>
                        </Array>
                        <mxPoint as="offset"/>
                    </mxGeometry>
                </mxCell>
                
                <!-- System to Customer -->
                <mxCell id="10" value="Invoices, Order Status,&#xa;Product Information" style="endArrow=classic;html=1;exitX=0.25;exitY=1;exitDx=0;exitDy=0;entryX=0.75;entryY=0;entryDx=0;entryDy=0;curved=1;fontSize=12;" edge="1" parent="1" source="2" target="4">
                    <mxGeometry x="-0.0968" y="-15" width="50" height="50" relative="1" as="geometry">
                        <mxPoint x="400" y="390" as="sourcePoint"/>
                        <mxPoint x="450" y="340" as="targetPoint"/>
                        <Array as="points">
                            <mxPoint x="320" y="510"/>
                        </Array>
                        <mxPoint as="offset"/>
                    </mxGeometry>
                </mxCell>
                
                <!-- Management to System -->
                <mxCell id="11" value="Approvals, Strategic&#xa;Decisions, Budgets" style="endArrow=classic;html=1;exitX=0;exitY=0.75;exitDx=0;exitDy=0;entryX=1;entryY=0.25;entryDx=0;entryDy=0;curved=1;fontSize=12;" edge="1" parent="1" source="5" target="2">
                    <mxGeometry x="-0.0968" y="-15" width="50" height="50" relative="1" as="geometry">
                        <mxPoint x="400" y="390" as="sourcePoint"/>
                        <mxPoint x="450" y="340" as="targetPoint"/>
                        <Array as="points">
                            <mxPoint x="550" y="280"/>
                        </Array>
                        <mxPoint as="offset"/>
                    </mxGeometry>
                </mxCell>
                
                <!-- System to Management -->
                <mxCell id="12" value="Reports, Analytics,&#xa;KPIs, Dashboards" style="endArrow=classic;html=1;exitX=0.75;exitY=0;exitDx=0;exitDy=0;entryX=0.25;entryY=1;entryDx=0;entryDy=0;curved=1;fontSize=12;" edge="1" parent="1" source="2" target="5">
                    <mxGeometry x="-0.0968" y="15" width="50" height="50" relative="1" as="geometry">
                        <mxPoint x="400" y="390" as="sourcePoint"/>
                        <mxPoint x="450" y="340" as="targetPoint"/>
                        <Array as="points">
                            <mxPoint x="520" y="250"/>
                        </Array>
                        <mxPoint as="offset"/>
                    </mxGeometry>
                </mxCell>
                
                <!-- Supplier to System -->
                <mxCell id="13" value="Product Catalogs,&#xa;Inventory Updates" style="endArrow=classic;html=1;exitX=0;exitY=0.25;exitDx=0;exitDy=0;entryX=1;entryY=0.75;entryDx=0;entryDy=0;curved=1;fontSize=12;" edge="1" parent="1" source="6" target="2">
                    <mxGeometry x="-0.0968" y="-15" width="50" height="50" relative="1" as="geometry">
                        <mxPoint x="400" y="390" as="sourcePoint"/>
                        <mxPoint x="450" y="340" as="targetPoint"/>
                        <Array as="points">
                            <mxPoint x="550" y="480"/>
                        </Array>
                        <mxPoint as="offset"/>
                    </mxGeometry>
                </mxCell>
                
                <!-- System to Supplier -->
                <mxCell id="14" value="Purchase Orders,&#xa;Payment Information" style="endArrow=classic;html=1;exitX=0.75;exitY=1;exitDx=0;exitDy=0;entryX=0.25;entryY=0;entryDx=0;entryDy=0;curved=1;fontSize=12;" edge="1" parent="1" source="2" target="6">
                    <mxGeometry x="-0.0968" y="15" width="50" height="50" relative="1" as="geometry">
                        <mxPoint x="400" y="390" as="sourcePoint"/>
                        <mxPoint x="450" y="340" as="targetPoint"/>
                        <Array as="points">
                            <mxPoint x="520" y="510"/>
                        </Array>
                        <mxPoint as="offset"/>
                    </mxGeometry>
                </mxCell>
                
                <!-- Title -->
                <mxCell id="15" value="ERP-AI System - Level 0 Data Flow Diagram (Context Diagram)" style="text;html=1;strokeColor=none;fillColor=none;align=center;verticalAlign=middle;whiteSpace=wrap;rounded=0;fontSize=18;fontStyle=1" vertex="1" parent="1">
                    <mxGeometry x="125" y="100" width="600" height="30" as="geometry"/>
                </mxCell>
                
                <!-- Legend -->
                <mxCell id="16" value="Legend:" style="text;html=1;strokeColor=none;fillColor=none;align=left;verticalAlign=middle;whiteSpace=wrap;rounded=0;fontSize=14;fontStyle=1" vertex="1" parent="1">
                    <mxGeometry x="125" y="650" width="100" height="30" as="geometry"/>
                </mxCell>
                
                <!-- Legend Items -->
                <mxCell id="17" value="" style="ellipse;whiteSpace=wrap;html=1;aspect=fixed;fillColor=#dae8fc;strokeColor=#6c8ebf;" vertex="1" parent="1">
                    <mxGeometry x="125" y="690" width="30" height="30" as="geometry"/>
                </mxCell>
                
                <mxCell id="18" value="System Process" style="text;html=1;strokeColor=none;fillColor=none;align=left;verticalAlign=middle;whiteSpace=wrap;rounded=0;fontSize=12;" vertex="1" parent="1">
                    <mxGeometry x="165" y="690" width="100" height="30" as="geometry"/>
                </mxCell>
                
                <mxCell id="19" value="" style="rounded=0;whiteSpace=wrap;html=1;fillColor=#f5f5f5;strokeColor=#666666;fontColor=#333333;" vertex="1" parent="1">
                    <mxGeometry x="125" y="730" width="30" height="30" as="geometry"/>
                </mxCell>
                
                <mxCell id="20" value="External Entity" style="text;html=1;strokeColor=none;fillColor=none;align=left;verticalAlign=middle;whiteSpace=wrap;rounded=0;fontSize=12;" vertex="1" parent="1">
                    <mxGeometry x="165" y="730" width="100" height="30" as="geometry"/>
                </mxCell>
                
                <mxCell id="21" value="" style="endArrow=classic;html=1;" vertex="1" parent="1">
                    <mxGeometry width="50" height="50" relative="1" as="geometry">
                        <mxPoint x="125" y="780" as="sourcePoint"/>
                        <mxPoint x="155" y="780" as="targetPoint"/>
                    </mxGeometry>
                </mxCell>
                
                <mxCell id="22" value="Data Flow" style="text;html=1;strokeColor=none;fillColor=none;align=left;verticalAlign=middle;whiteSpace=wrap;rounded=0;fontSize=12;" vertex="1" parent="1">
                    <mxGeometry x="165" y="765" width="100" height="30" as="geometry"/>
                </mxCell>
                
                <!-- Notes -->
                <mxCell id="23" value="Notes:&#xa;- This Level 0 DFD shows the ERP-AI system as a single process&#xa;- External entities represent the main stakeholders interacting with the system&#xa;- Data flows show the primary information exchanged between entities and the system&#xa;- Level 1 DFD would break down the main process into sub-processes" style="text;html=1;strokeColor=none;fillColor=none;align=left;verticalAlign=top;whiteSpace=wrap;rounded=0;fontSize=12;" vertex="1" parent="1">
                    <mxGeometry x="350" y="650" width="385" height="80" as="geometry"/>
                </mxCell>
            </root>
        </mxGraphModel>
    </diagram>
</mxfile>
